<svg width="138" height="20" viewBox="0 0 138 20" fill="none" xmlns="http://www.w3.org/2000/svg">
<path d="M19.8331 14.6869C20.3353 15.2942 20.9348 15.819 21.6085 16.2411C22.1289 16.5709 22.7333 16.7538 23.3543 16.7695C23.8398 16.7885 24.315 16.6297 24.6859 16.3244C24.8537 16.1865 24.9876 16.0138 25.0778 15.8189C25.1679 15.6241 25.2121 15.412 25.2069 15.1984C25.2222 14.9844 25.1904 14.7696 25.1137 14.5684C25.0371 14.3672 24.9173 14.1842 24.7623 14.0315C24.4613 13.7594 23.7816 13.4785 22.7233 13.1886C21.2759 12.787 20.2505 12.2662 19.6471 11.6261C19.0094 10.891 18.6854 9.94629 18.7416 8.98603C18.7163 8.33213 18.8295 7.68014 19.0742 7.0706C19.3189 6.46106 19.6899 5.90699 20.1641 5.44283C20.6521 4.98321 21.2311 4.62494 21.8659 4.38979C22.5007 4.15465 23.1781 4.04755 23.8568 4.07501C24.6438 4.07026 25.4268 4.18364 26.1783 4.41117C26.9236 4.64086 27.6262 4.98503 28.2597 5.43064L26.9928 8.39943C26.5753 8.02636 26.0988 7.72104 25.5817 7.49515C25.1304 7.29847 24.6423 7.19473 24.1478 7.19045C23.7226 7.17047 23.3035 7.29563 22.963 7.54429C22.8186 7.65162 22.7022 7.79059 22.6233 7.9499C22.5444 8.10921 22.5053 8.28437 22.5091 8.46115C22.5001 8.63328 22.531 8.80517 22.5996 8.9641C22.6681 9.12302 22.7726 9.26489 22.9052 9.37919C23.3695 9.69452 23.8942 9.91581 24.4482 10.0299L24.6297 10.083C26.2736 10.5364 27.3561 11.0362 27.8773 11.5825C28.2379 11.9693 28.5104 12.4259 28.6769 12.9224C28.8655 13.4804 28.9579 14.0649 28.9505 14.6523C28.9829 15.367 28.8619 16.0805 28.5951 16.7472C28.3283 17.4139 27.9217 18.0192 27.4011 18.5246C26.3679 19.4994 24.9915 19.9875 23.2719 19.9891C22.3041 20.0017 21.3442 19.8184 20.4532 19.4509C19.5353 19.0444 18.705 18.4723 18.0063 17.765L19.8331 14.6869Z" fill="#53575A"/>
<path d="M41.8091 14.3858C41.8128 15.1203 41.6666 15.8482 41.379 16.5274C40.9549 17.5517 40.2259 18.4295 39.2855 19.0482C38.345 19.6669 37.2361 19.9983 36.1008 20C34.9654 20.0017 33.8554 19.6735 32.9131 19.0576C31.9707 18.4417 31.239 17.5662 30.8116 16.5431C30.2484 15.1557 30.2484 13.612 30.8116 12.2246C31.0953 11.5433 31.5169 10.9244 32.0514 10.4046C32.5673 9.88344 33.1901 9.47344 33.8793 9.20117C35.3001 8.66178 36.8775 8.66178 38.2984 9.20117C38.9876 9.47467 39.6115 9.88341 40.1311 10.4019C40.6692 10.9236 41.0949 11.5443 41.3834 12.2279C41.6718 12.9115 41.8173 13.6442 41.8111 14.3831M38.2276 14.3831C38.2658 13.7224 38.0613 13.07 37.6508 12.5423C37.4638 12.3435 37.2383 12.1825 36.9873 12.0685C36.7363 11.9545 36.4646 11.8896 36.1879 11.8777C35.9111 11.8658 35.6347 11.9071 35.3743 11.9991C35.1139 12.0911 34.8747 12.2322 34.6704 12.4141C34.6231 12.4566 34.5782 12.4998 34.535 12.5458C34.1258 13.074 33.9231 13.7265 33.963 14.3866C33.9249 15.0444 34.1252 15.6944 34.5289 16.2235C34.9127 16.628 35.4459 16.8676 36.0114 16.8897C36.5768 16.9119 37.1281 16.7146 37.5441 16.3414C37.585 16.3039 37.6255 16.2646 37.6653 16.2235C38.0726 15.6959 38.2752 15.0453 38.2373 14.3866" fill="#53575A"/>
<path d="M47.5998 3.54663H43.9863V19.5799H47.5998V3.54663Z" fill="#53575A"/>
<path d="M61.1951 14.3858C61.2012 15.12 61.0571 15.848 60.7711 16.5274C60.347 17.5517 59.6179 18.4295 58.6775 19.0482C57.7371 19.6669 56.6282 19.9983 55.4928 20C54.3575 20.0017 53.2475 19.6735 52.3052 19.0576C51.3628 18.4417 50.631 17.5662 50.2037 16.5431C49.6404 15.1557 49.6404 13.612 50.2037 12.2246C50.4874 11.5433 50.909 10.9244 51.4434 10.4046C51.9569 9.88457 52.5765 9.47464 53.2625 9.20117C54.6833 8.66178 56.2607 8.66178 57.6816 9.20117C58.3708 9.47467 58.9947 9.88341 59.5143 10.4019C60.0524 10.9236 60.4781 11.5443 60.7666 12.2279C61.055 12.9115 61.2004 13.6442 61.1943 14.3831M57.612 14.3831C57.6502 13.7224 57.4457 13.07 57.0352 12.5423C56.8489 12.3428 56.624 12.1809 56.3734 12.066C56.1228 11.951 55.8514 11.8852 55.5746 11.8722C55.2979 11.8593 55.0212 11.8996 54.7604 11.9906C54.4996 12.0817 54.2599 12.2219 54.0548 12.4031C54.0051 12.4467 53.9578 12.4939 53.9117 12.5423C53.5396 13.0871 53.3407 13.7264 53.3398 14.3804C53.3389 15.0344 53.5361 15.6742 53.9068 16.2199C54.2906 16.6244 54.8239 16.8641 55.3893 16.8862C55.9547 16.9083 56.5061 16.7111 56.922 16.3379C56.963 16.3004 57.0034 16.2611 57.0433 16.2199C57.4498 15.692 57.6519 15.0416 57.614 14.3831" fill="#53575A"/>
<path d="M67.3099 19.5858H63.5239V4.44898H67.7441C68.9106 4.40877 70.0781 4.49275 71.2257 4.69942C71.8545 4.84433 72.4381 5.13472 72.9268 5.54591C73.4779 6.01464 73.9066 6.60407 74.1774 7.26561C74.472 8.00234 74.6176 8.78742 74.6063 9.57781C74.6229 10.3914 74.4789 11.2006 74.1823 11.9616C73.9183 12.6198 73.486 13.2017 72.9264 13.6522C72.4917 13.9879 71.9873 14.228 71.4481 14.3559C70.5524 14.5322 69.6385 14.6053 68.7252 14.5737H67.3079V19.5858H67.3099ZM67.3099 11.2594H68.078C69.0503 11.2594 69.7287 11.1227 70.1133 10.8493C70.3186 10.6807 70.4785 10.4659 70.579 10.2236C70.6796 9.98121 70.7177 9.71864 70.6901 9.45868C70.7179 9.20464 70.6806 8.94785 70.5814 8.71128C70.4822 8.47471 70.3243 8.26574 70.1218 8.10305C69.7445 7.83334 69.0769 7.69914 68.1188 7.70045H67.3083L67.3099 11.2594Z" fill="#80BC00"/>
<path d="M76.4312 19.5846V9.13229H79.8319V11.5959C80.1058 10.8054 80.6047 10.1068 81.2706 9.58129C81.9077 9.12276 82.6846 8.88546 83.4769 8.9074C83.6205 8.90481 83.7641 8.91006 83.907 8.92313C84.0513 8.93885 84.1981 8.94986 84.3484 8.97031L84.0028 12.3122C83.7962 12.2384 83.5831 12.183 83.3662 12.1467C83.1659 12.1129 82.963 12.096 82.7598 12.096C82.3797 12.074 81.9995 12.1367 81.648 12.2792C81.2966 12.4217 80.9832 12.6404 80.7318 12.9185C80.2173 13.5892 79.9612 14.4143 80.0082 15.2499V19.583L76.4312 19.5846Z" fill="#80BC00"/>
<path d="M96.5153 14.3858C96.5185 15.3045 96.2888 16.2098 95.8465 17.0215C95.4042 17.8333 94.763 18.5264 93.9795 19.0396C93.196 19.5528 92.2946 19.8702 91.3549 19.9637C90.4153 20.0572 89.4664 19.9238 88.5923 19.5755C87.9008 19.2947 87.2758 18.879 86.7559 18.354C86.2228 17.84 85.8025 17.2262 85.5202 16.5497C84.9594 15.1619 84.9594 13.6191 85.5202 12.2312C85.8048 11.5501 86.2268 10.9313 86.7612 10.4113C87.2744 9.88945 87.894 9.47754 88.5802 9.2019C90.0015 8.66252 91.5793 8.66252 93.0005 9.2019C93.6894 9.47537 94.3129 9.88413 94.8321 10.4026C95.3715 10.9258 95.7984 11.5483 96.088 12.2336C96.3726 12.9165 96.5171 13.647 96.5133 14.3838M92.9285 14.3838C92.967 13.7233 92.763 13.0709 92.3529 12.543C92.1666 12.3435 91.9418 12.1817 91.6912 12.0667C91.4406 11.9517 91.1691 11.8859 90.8923 11.873C90.6156 11.8601 90.3389 11.9003 90.0781 11.9914C89.8174 12.0825 89.5776 12.2226 89.3725 12.4038C89.3228 12.4475 89.2755 12.4947 89.2294 12.543C88.8573 13.0878 88.6584 13.7271 88.6575 14.3811C88.6567 15.0352 88.8539 15.675 89.2246 16.2207C89.608 16.6248 90.1408 16.8643 90.7058 16.8864C91.2708 16.9085 91.8217 16.7115 92.2373 16.3386C92.2777 16.2993 92.3182 16.2623 92.3586 16.2207C92.7672 15.6938 92.9696 15.0426 92.9293 14.3838" fill="#80BC00"/>
<path d="M99.1464 19.5798V11.7385H97.6196V9.13221H99.1464V6.01953H102.7V9.13221H104.229V11.7385H102.7V19.5798H99.1464Z" fill="#80BC00"/>
<path d="M116.505 15.0896H108.724C108.685 15.7631 108.901 16.4271 109.33 16.9567C109.545 17.1799 109.808 17.3544 110.1 17.4679C110.392 17.5814 110.706 17.631 111.02 17.6133C111.501 17.6293 111.978 17.5208 112.402 17.2988C112.782 17.0824 113.081 16.7547 113.257 16.3626L115.971 17.48C115.646 18.2792 115.035 18.937 114.25 19.3314C113.312 19.79 112.272 20.0137 111.222 19.9821C109.441 19.9821 108.011 19.477 106.935 18.4668C106.394 17.9465 105.971 17.322 105.692 16.6333C105.414 15.9446 105.286 15.207 105.318 14.4676C105.294 13.7215 105.425 12.9784 105.703 12.2826C105.981 11.5869 106.4 10.9527 106.935 10.418C107.464 9.88907 108.1 9.4727 108.803 9.19522C109.505 8.91774 110.26 8.78521 111.018 8.80601C111.77 8.77149 112.52 8.9005 113.214 9.18364C113.908 9.46678 114.529 9.89693 115.03 10.4428C116.014 11.531 116.505 13.0218 116.505 14.915V15.0896ZM112.955 13.0121C112.913 12.4753 112.678 11.97 112.291 11.5849C112.111 11.409 111.895 11.2706 111.658 11.1781C111.421 11.0855 111.167 11.0408 110.911 11.0467C110.656 11.034 110.4 11.0709 110.159 11.1552C109.918 11.2395 109.697 11.3695 109.509 11.5377C109.123 11.9459 108.881 12.4625 108.816 13.0133H112.955L112.955 13.0121Z" fill="#80BC00"/>
<path d="M125.916 12.5657C125.618 12.2843 125.277 12.0504 124.905 11.873C124.582 11.7318 124.232 11.661 123.878 11.6654C123.556 11.6523 123.235 11.7107 122.939 11.8359C122.644 11.9612 122.381 12.1501 122.172 12.3884C121.725 12.9486 121.501 13.6464 121.541 14.3542C121.504 15.0496 121.738 15.7328 122.197 16.2674C122.42 16.5054 122.695 16.6928 123.001 16.8163C123.307 16.9398 123.638 16.9964 123.969 16.9821C124.324 16.9834 124.676 16.9069 124.997 16.7584C125.348 16.589 125.66 16.3536 125.916 16.0657V19.2621C125.511 19.4999 125.075 19.6849 124.62 19.8125C124.186 19.9308 123.737 19.9902 123.286 19.989C122.572 20.014 121.861 19.8887 121.202 19.6217C120.542 19.3548 119.949 18.9525 119.464 18.4423C118.485 17.4107 117.997 16.0543 118.002 14.3731C117.941 12.8977 118.477 11.4579 119.495 10.3628C119.982 9.85159 120.576 9.44804 121.237 9.17949C121.898 8.91094 122.61 8.78366 123.326 8.80627C123.8 8.80085 124.273 8.85289 124.734 8.96118C125.152 9.06426 125.552 9.23035 125.918 9.45342V12.5657H125.916Z" fill="#80BC00"/>
<path d="M128.685 19.5798V11.7385H127.158V9.13221H128.685V6.01953H132.239V9.13221H133.768V11.7385H132.239V19.5798H128.685Z" fill="#80BC00"/>
<path d="M10.8704 6.69819C10.8923 7.60622 10.5427 8.48556 9.89845 9.14311C9.25423 9.80065 8.36803 10.1826 7.43447 10.2052C6.50098 10.1824 5.61492 9.80038 4.97074 9.14288C4.32656 8.48538 3.9769 7.60616 3.9985 6.69819C3.9769 5.79021 4.32656 4.911 4.97074 4.2535C5.61492 3.596 6.50098 3.21393 7.43447 3.19116C8.3681 3.21352 9.25442 3.59546 9.89869 4.25305C10.543 4.91064 10.8925 5.7901 10.8704 6.69819Z" fill="#53575A"/>
<path d="M11.5217 11.4555H7.43576C4.86808 11.4555 2.7782 9.32102 2.7782 6.70412C2.7782 4.08722 4.8697 1.95273 7.43576 1.95273C8.69664 1.98039 9.89489 2.49286 10.7681 3.37794C11.6414 4.26301 12.1185 5.44857 12.0949 6.67503V11.0761L13.9875 13.0124V6.69822C13.9888 3.00248 11.0557 0.010498 7.43576 0.010498C3.81587 0.010498 0.887207 3.00248 0.887207 6.69822C0.887207 10.394 3.8191 13.386 7.43576 13.386H13.4091L11.5217 11.4555Z" fill="#80BC00"/>
<path d="M136.707 4.97686C136.975 5.26074 137.12 5.63386 137.113 6.01914C137.117 6.21402 137.081 6.40766 137.007 6.58886C136.933 6.77006 136.823 6.93522 136.683 7.07478C136.55 7.20957 136.39 7.31722 136.214 7.39147C136.037 7.46572 135.847 7.50508 135.655 7.50726C135.46 7.50675 135.267 7.46622 135.089 7.38832C134.911 7.31041 134.751 7.19688 134.622 7.05512C134.352 6.7738 134.202 6.40348 134.201 6.01874C134.202 5.61951 134.361 5.23593 134.646 4.94855C134.775 4.81457 134.932 4.70805 135.106 4.63566C135.28 4.56327 135.467 4.52658 135.656 4.52786C135.854 4.52663 136.05 4.56594 136.231 4.64324C136.412 4.72053 136.574 4.83407 136.707 4.97646M134.831 5.13963C134.596 5.37545 134.466 5.69149 134.468 6.01992C134.464 6.33328 134.587 6.63559 134.808 6.86287C134.914 6.97939 135.045 7.07287 135.19 7.13722C135.336 7.20157 135.494 7.23536 135.654 7.23637C135.812 7.23558 135.968 7.20383 136.112 7.14303C136.257 7.08223 136.388 6.99362 136.497 6.88253C136.611 6.76794 136.701 6.63253 136.761 6.48408C136.821 6.33564 136.85 6.17709 136.847 6.01756C136.853 5.70175 136.733 5.39605 136.513 5.16361C136.405 5.04812 136.274 4.95586 136.127 4.89275C135.98 4.82965 135.822 4.79709 135.661 4.79718C135.506 4.79544 135.352 4.82509 135.209 4.88423C135.066 4.94338 134.937 5.03075 134.831 5.14081M135.684 5.17108C136.144 5.17108 136.375 5.3366 136.375 5.64288C136.378 5.74313 136.346 5.84142 136.284 5.92163C136.222 6.00185 136.134 6.05924 136.034 6.0844L136.398 6.80271H135.913L135.612 6.15321H135.483V6.80271H135.043V5.17069L135.684 5.17108ZM135.481 5.88703H135.639C135.821 5.88703 135.926 5.81823 135.926 5.67551C135.926 5.53279 135.826 5.45062 135.615 5.45062H135.483V5.88703H135.481Z" fill="#53575A"/>
</svg>
